<?xml version="1.0" encoding="utf-8" standalone="no"?>
<!DOCTYPE svg PUBLIC "-//W3C//DTD SVG 1.1//EN"
  "http://www.w3.org/Graphics/SVG/1.1/DTD/svg11.dtd">
<svg xmlns:xlink="http://www.w3.org/1999/xlink" width="460.8pt" height="345.6pt" viewBox="0 0 460.8 345.6" xmlns="http://www.w3.org/2000/svg" version="1.1">
 <metadata>
  <rdf:RDF xmlns:dc="http://purl.org/dc/elements/1.1/" xmlns:cc="http://creativecommons.org/ns#" xmlns:rdf="http://www.w3.org/1999/02/22-rdf-syntax-ns#">
   <cc:Work>
    <dc:type rdf:resource="http://purl.org/dc/dcmitype/StillImage"/>
    <dc:date>2025-04-27T16:14:05.587818</dc:date>
    <dc:format>image/svg+xml</dc:format>
    <dc:creator>
     <cc:Agent>
      <dc:title>Matplotlib v3.10.1, https://matplotlib.org/</dc:title>
     </cc:Agent>
    </dc:creator>
   </cc:Work>
  </rdf:RDF>
 </metadata>
 <defs>
  <style type="text/css">*{stroke-linejoin: round; stroke-linecap: butt}</style>
 </defs>
 <g id="figure_1">
  <g id="patch_1">
   <path d="M 0 345.6 
L 460.8 345.6 
L 460.8 0 
L 0 0 
z
" style="fill: #ffffff"/>
  </g>
  <g id="axes_1">
   <g id="patch_2">
    <path d="M 57.6 307.584 
L 414.72 307.584 
L 414.72 41.472 
L 57.6 41.472 
z
" style="fill: #ffffff"/>
   </g>
   <g id="matplotlib.axis_1">
    <g id="xtick_1">
     <g id="line2d_1">
      <path d="M 73.832727 307.584 
L 73.832727 41.472 
" clip-path="url(#pf2e37242b5)" style="fill: none; stroke: #b0b0b0; stroke-width: 0.8; stroke-linecap: square"/>
     </g>
     <g id="line2d_2">
      <defs>
       <path id="mf3b87a67fc" d="M 0 0 
L 0 3.5 
" style="stroke: #000000; stroke-width: 0.8"/>
      </defs>
      <g>
       <use xlink:href="#mf3b87a67fc" x="73.832727" y="307.584" style="stroke: #000000; stroke-width: 0.8"/>
      </g>
     </g>
     <g id="text_1">
      <!-- 0 -->
      <g transform="translate(70.651477 322.182437) scale(0.1 -0.1)">
       <defs>
        <path id="DejaVuSans-30" d="M 2034 4250 
Q 1547 4250 1301 3770 
Q 1056 3291 1056 2328 
Q 1056 1369 1301 889 
Q 1547 409 2034 409 
Q 2525 409 2770 889 
Q 3016 1369 3016 2328 
Q 3016 3291 2770 3770 
Q 2525 4250 2034 4250 
z
M 2034 4750 
Q 2819 4750 3233 4129 
Q 3647 3509 3647 2328 
Q 3647 1150 3233 529 
Q 2819 -91 2034 -91 
Q 1250 -91 836 529 
Q 422 1150 422 2328 
Q 422 3509 836 4129 
Q 1250 4750 2034 4750 
z
" transform="scale(0.015625)"/>
       </defs>
       <use xlink:href="#DejaVuSans-30"/>
      </g>
     </g>
    </g>
    <g id="xtick_2">
     <g id="line2d_3">
      <path d="M 128.122785 307.584 
L 128.122785 41.472 
" clip-path="url(#pf2e37242b5)" style="fill: none; stroke: #b0b0b0; stroke-width: 0.8; stroke-linecap: square"/>
     </g>
     <g id="line2d_4">
      <g>
       <use xlink:href="#mf3b87a67fc" x="128.122785" y="307.584" style="stroke: #000000; stroke-width: 0.8"/>
      </g>
     </g>
     <g id="text_2">
      <!-- 50 -->
      <g transform="translate(121.760285 322.182437) scale(0.1 -0.1)">
       <defs>
        <path id="DejaVuSans-35" d="M 691 4666 
L 3169 4666 
L 3169 4134 
L 1269 4134 
L 1269 2991 
Q 1406 3038 1543 3061 
Q 1681 3084 1819 3084 
Q 2600 3084 3056 2656 
Q 3513 2228 3513 1497 
Q 3513 744 3044 326 
Q 2575 -91 1722 -91 
Q 1428 -91 1123 -41 
Q 819 9 494 109 
L 494 744 
Q 775 591 1075 516 
Q 1375 441 1709 441 
Q 2250 441 2565 725 
Q 2881 1009 2881 1497 
Q 2881 1984 2565 2268 
Q 2250 2553 1709 2553 
Q 1456 2553 1204 2497 
Q 953 2441 691 2322 
L 691 4666 
z
" transform="scale(0.015625)"/>
       </defs>
       <use xlink:href="#DejaVuSans-35"/>
       <use xlink:href="#DejaVuSans-30" transform="translate(63.623047 0)"/>
      </g>
     </g>
    </g>
    <g id="xtick_3">
     <g id="line2d_5">
      <path d="M 182.412843 307.584 
L 182.412843 41.472 
" clip-path="url(#pf2e37242b5)" style="fill: none; stroke: #b0b0b0; stroke-width: 0.8; stroke-linecap: square"/>
     </g>
     <g id="line2d_6">
      <g>
       <use xlink:href="#mf3b87a67fc" x="182.412843" y="307.584" style="stroke: #000000; stroke-width: 0.8"/>
      </g>
     </g>
     <g id="text_3">
      <!-- 100 -->
      <g transform="translate(172.869093 322.182437) scale(0.1 -0.1)">
       <defs>
        <path id="DejaVuSans-31" d="M 794 531 
L 1825 531 
L 1825 4091 
L 703 3866 
L 703 4441 
L 1819 4666 
L 2450 4666 
L 2450 531 
L 3481 531 
L 3481 0 
L 794 0 
L 794 531 
z
" transform="scale(0.015625)"/>
       </defs>
       <use xlink:href="#DejaVuSans-31"/>
       <use xlink:href="#DejaVuSans-30" transform="translate(63.623047 0)"/>
       <use xlink:href="#DejaVuSans-30" transform="translate(127.246094 0)"/>
      </g>
     </g>
    </g>
    <g id="xtick_4">
     <g id="line2d_7">
      <path d="M 236.702901 307.584 
L 236.702901 41.472 
" clip-path="url(#pf2e37242b5)" style="fill: none; stroke: #b0b0b0; stroke-width: 0.8; stroke-linecap: square"/>
     </g>
     <g id="line2d_8">
      <g>
       <use xlink:href="#mf3b87a67fc" x="236.702901" y="307.584" style="stroke: #000000; stroke-width: 0.8"/>
      </g>
     </g>
     <g id="text_4">
      <!-- 150 -->
      <g transform="translate(227.159151 322.182437) scale(0.1 -0.1)">
       <use xlink:href="#DejaVuSans-31"/>
       <use xlink:href="#DejaVuSans-35" transform="translate(63.623047 0)"/>
       <use xlink:href="#DejaVuSans-30" transform="translate(127.246094 0)"/>
      </g>
     </g>
    </g>
    <g id="xtick_5">
     <g id="line2d_9">
      <path d="M 290.992958 307.584 
L 290.992958 41.472 
" clip-path="url(#pf2e37242b5)" style="fill: none; stroke: #b0b0b0; stroke-width: 0.8; stroke-linecap: square"/>
     </g>
     <g id="line2d_10">
      <g>
       <use xlink:href="#mf3b87a67fc" x="290.992958" y="307.584" style="stroke: #000000; stroke-width: 0.8"/>
      </g>
     </g>
     <g id="text_5">
      <!-- 200 -->
      <g transform="translate(281.449208 322.182437) scale(0.1 -0.1)">
       <defs>
        <path id="DejaVuSans-32" d="M 1228 531 
L 3431 531 
L 3431 0 
L 469 0 
L 469 531 
Q 828 903 1448 1529 
Q 2069 2156 2228 2338 
Q 2531 2678 2651 2914 
Q 2772 3150 2772 3378 
Q 2772 3750 2511 3984 
Q 2250 4219 1831 4219 
Q 1534 4219 1204 4116 
Q 875 4013 500 3803 
L 500 4441 
Q 881 4594 1212 4672 
Q 1544 4750 1819 4750 
Q 2544 4750 2975 4387 
Q 3406 4025 3406 3419 
Q 3406 3131 3298 2873 
Q 3191 2616 2906 2266 
Q 2828 2175 2409 1742 
Q 1991 1309 1228 531 
z
" transform="scale(0.015625)"/>
       </defs>
       <use xlink:href="#DejaVuSans-32"/>
       <use xlink:href="#DejaVuSans-30" transform="translate(63.623047 0)"/>
       <use xlink:href="#DejaVuSans-30" transform="translate(127.246094 0)"/>
      </g>
     </g>
    </g>
    <g id="xtick_6">
     <g id="line2d_11">
      <path d="M 345.283016 307.584 
L 345.283016 41.472 
" clip-path="url(#pf2e37242b5)" style="fill: none; stroke: #b0b0b0; stroke-width: 0.8; stroke-linecap: square"/>
     </g>
     <g id="line2d_12">
      <g>
       <use xlink:href="#mf3b87a67fc" x="345.283016" y="307.584" style="stroke: #000000; stroke-width: 0.8"/>
      </g>
     </g>
     <g id="text_6">
      <!-- 250 -->
      <g transform="translate(335.739266 322.182437) scale(0.1 -0.1)">
       <use xlink:href="#DejaVuSans-32"/>
       <use xlink:href="#DejaVuSans-35" transform="translate(63.623047 0)"/>
       <use xlink:href="#DejaVuSans-30" transform="translate(127.246094 0)"/>
      </g>
     </g>
    </g>
    <g id="xtick_7">
     <g id="line2d_13">
      <path d="M 399.573074 307.584 
L 399.573074 41.472 
" clip-path="url(#pf2e37242b5)" style="fill: none; stroke: #b0b0b0; stroke-width: 0.8; stroke-linecap: square"/>
     </g>
     <g id="line2d_14">
      <g>
       <use xlink:href="#mf3b87a67fc" x="399.573074" y="307.584" style="stroke: #000000; stroke-width: 0.8"/>
      </g>
     </g>
     <g id="text_7">
      <!-- 300 -->
      <g transform="translate(390.029324 322.182437) scale(0.1 -0.1)">
       <defs>
        <path id="DejaVuSans-33" d="M 2597 2516 
Q 3050 2419 3304 2112 
Q 3559 1806 3559 1356 
Q 3559 666 3084 287 
Q 2609 -91 1734 -91 
Q 1441 -91 1130 -33 
Q 819 25 488 141 
L 488 750 
Q 750 597 1062 519 
Q 1375 441 1716 441 
Q 2309 441 2620 675 
Q 2931 909 2931 1356 
Q 2931 1769 2642 2001 
Q 2353 2234 1838 2234 
L 1294 2234 
L 1294 2753 
L 1863 2753 
Q 2328 2753 2575 2939 
Q 2822 3125 2822 3475 
Q 2822 3834 2567 4026 
Q 2313 4219 1838 4219 
Q 1578 4219 1281 4162 
Q 984 4106 628 3988 
L 628 4550 
Q 988 4650 1302 4700 
Q 1616 4750 1894 4750 
Q 2613 4750 3031 4423 
Q 3450 4097 3450 3541 
Q 3450 3153 3228 2886 
Q 3006 2619 2597 2516 
z
" transform="scale(0.015625)"/>
       </defs>
       <use xlink:href="#DejaVuSans-33"/>
       <use xlink:href="#DejaVuSans-30" transform="translate(63.623047 0)"/>
       <use xlink:href="#DejaVuSans-30" transform="translate(127.246094 0)"/>
      </g>
     </g>
    </g>
    <g id="text_8">
     <!-- Generations -->
     <g transform="translate(205.662344 335.860562) scale(0.1 -0.1)">
      <defs>
       <path id="DejaVuSans-47" d="M 3809 666 
L 3809 1919 
L 2778 1919 
L 2778 2438 
L 4434 2438 
L 4434 434 
Q 4069 175 3628 42 
Q 3188 -91 2688 -91 
Q 1594 -91 976 548 
Q 359 1188 359 2328 
Q 359 3472 976 4111 
Q 1594 4750 2688 4750 
Q 3144 4750 3555 4637 
Q 3966 4525 4313 4306 
L 4313 3634 
Q 3963 3931 3569 4081 
Q 3175 4231 2741 4231 
Q 1884 4231 1454 3753 
Q 1025 3275 1025 2328 
Q 1025 1384 1454 906 
Q 1884 428 2741 428 
Q 3075 428 3337 486 
Q 3600 544 3809 666 
z
" transform="scale(0.015625)"/>
       <path id="DejaVuSans-65" d="M 3597 1894 
L 3597 1613 
L 953 1613 
Q 991 1019 1311 708 
Q 1631 397 2203 397 
Q 2534 397 2845 478 
Q 3156 559 3463 722 
L 3463 178 
Q 3153 47 2828 -22 
Q 2503 -91 2169 -91 
Q 1331 -91 842 396 
Q 353 884 353 1716 
Q 353 2575 817 3079 
Q 1281 3584 2069 3584 
Q 2775 3584 3186 3129 
Q 3597 2675 3597 1894 
z
M 3022 2063 
Q 3016 2534 2758 2815 
Q 2500 3097 2075 3097 
Q 1594 3097 1305 2825 
Q 1016 2553 972 2059 
L 3022 2063 
z
" transform="scale(0.015625)"/>
       <path id="DejaVuSans-6e" d="M 3513 2113 
L 3513 0 
L 2938 0 
L 2938 2094 
Q 2938 2591 2744 2837 
Q 2550 3084 2163 3084 
Q 1697 3084 1428 2787 
Q 1159 2491 1159 1978 
L 1159 0 
L 581 0 
L 581 3500 
L 1159 3500 
L 1159 2956 
Q 1366 3272 1645 3428 
Q 1925 3584 2291 3584 
Q 2894 3584 3203 3211 
Q 3513 2838 3513 2113 
z
" transform="scale(0.015625)"/>
       <path id="DejaVuSans-72" d="M 2631 2963 
Q 2534 3019 2420 3045 
Q 2306 3072 2169 3072 
Q 1681 3072 1420 2755 
Q 1159 2438 1159 1844 
L 1159 0 
L 581 0 
L 581 3500 
L 1159 3500 
L 1159 2956 
Q 1341 3275 1631 3429 
Q 1922 3584 2338 3584 
Q 2397 3584 2469 3576 
Q 2541 3569 2628 3553 
L 2631 2963 
z
" transform="scale(0.015625)"/>
       <path id="DejaVuSans-61" d="M 2194 1759 
Q 1497 1759 1228 1600 
Q 959 1441 959 1056 
Q 959 750 1161 570 
Q 1363 391 1709 391 
Q 2188 391 2477 730 
Q 2766 1069 2766 1631 
L 2766 1759 
L 2194 1759 
z
M 3341 1997 
L 3341 0 
L 2766 0 
L 2766 531 
Q 2569 213 2275 61 
Q 1981 -91 1556 -91 
Q 1019 -91 701 211 
Q 384 513 384 1019 
Q 384 1609 779 1909 
Q 1175 2209 1959 2209 
L 2766 2209 
L 2766 2266 
Q 2766 2663 2505 2880 
Q 2244 3097 1772 3097 
Q 1472 3097 1187 3025 
Q 903 2953 641 2809 
L 641 3341 
Q 956 3463 1253 3523 
Q 1550 3584 1831 3584 
Q 2591 3584 2966 3190 
Q 3341 2797 3341 1997 
z
" transform="scale(0.015625)"/>
       <path id="DejaVuSans-74" d="M 1172 4494 
L 1172 3500 
L 2356 3500 
L 2356 3053 
L 1172 3053 
L 1172 1153 
Q 1172 725 1289 603 
Q 1406 481 1766 481 
L 2356 481 
L 2356 0 
L 1766 0 
Q 1100 0 847 248 
Q 594 497 594 1153 
L 594 3053 
L 172 3053 
L 172 3500 
L 594 3500 
L 594 4494 
L 1172 4494 
z
" transform="scale(0.015625)"/>
       <path id="DejaVuSans-69" d="M 603 3500 
L 1178 3500 
L 1178 0 
L 603 0 
L 603 3500 
z
M 603 4863 
L 1178 4863 
L 1178 4134 
L 603 4134 
L 603 4863 
z
" transform="scale(0.015625)"/>
       <path id="DejaVuSans-6f" d="M 1959 3097 
Q 1497 3097 1228 2736 
Q 959 2375 959 1747 
Q 959 1119 1226 758 
Q 1494 397 1959 397 
Q 2419 397 2687 759 
Q 2956 1122 2956 1747 
Q 2956 2369 2687 2733 
Q 2419 3097 1959 3097 
z
M 1959 3584 
Q 2709 3584 3137 3096 
Q 3566 2609 3566 1747 
Q 3566 888 3137 398 
Q 2709 -91 1959 -91 
Q 1206 -91 779 398 
Q 353 888 353 1747 
Q 353 2609 779 3096 
Q 1206 3584 1959 3584 
z
" transform="scale(0.015625)"/>
       <path id="DejaVuSans-73" d="M 2834 3397 
L 2834 2853 
Q 2591 2978 2328 3040 
Q 2066 3103 1784 3103 
Q 1356 3103 1142 2972 
Q 928 2841 928 2578 
Q 928 2378 1081 2264 
Q 1234 2150 1697 2047 
L 1894 2003 
Q 2506 1872 2764 1633 
Q 3022 1394 3022 966 
Q 3022 478 2636 193 
Q 2250 -91 1575 -91 
Q 1294 -91 989 -36 
Q 684 19 347 128 
L 347 722 
Q 666 556 975 473 
Q 1284 391 1588 391 
Q 1994 391 2212 530 
Q 2431 669 2431 922 
Q 2431 1156 2273 1281 
Q 2116 1406 1581 1522 
L 1381 1569 
Q 847 1681 609 1914 
Q 372 2147 372 2553 
Q 372 3047 722 3315 
Q 1072 3584 1716 3584 
Q 2034 3584 2315 3537 
Q 2597 3491 2834 3397 
z
" transform="scale(0.015625)"/>
      </defs>
      <use xlink:href="#DejaVuSans-47"/>
      <use xlink:href="#DejaVuSans-65" transform="translate(77.490234 0)"/>
      <use xlink:href="#DejaVuSans-6e" transform="translate(139.013672 0)"/>
      <use xlink:href="#DejaVuSans-65" transform="translate(202.392578 0)"/>
      <use xlink:href="#DejaVuSans-72" transform="translate(263.916016 0)"/>
      <use xlink:href="#DejaVuSans-61" transform="translate(305.029297 0)"/>
      <use xlink:href="#DejaVuSans-74" transform="translate(366.308594 0)"/>
      <use xlink:href="#DejaVuSans-69" transform="translate(405.517578 0)"/>
      <use xlink:href="#DejaVuSans-6f" transform="translate(433.300781 0)"/>
      <use xlink:href="#DejaVuSans-6e" transform="translate(494.482422 0)"/>
      <use xlink:href="#DejaVuSans-73" transform="translate(557.861328 0)"/>
     </g>
    </g>
   </g>
   <g id="matplotlib.axis_2">
    <g id="ytick_1">
     <g id="line2d_15">
      <path d="M 57.6 289.10059 
L 414.72 289.10059 
" clip-path="url(#pf2e37242b5)" style="fill: none; stroke: #b0b0b0; stroke-width: 0.8; stroke-linecap: square"/>
     </g>
     <g id="line2d_16">
      <defs>
       <path id="m491db25af4" d="M 0 0 
L -3.5 0 
" style="stroke: #000000; stroke-width: 0.8"/>
      </defs>
      <g>
       <use xlink:href="#m491db25af4" x="57.6" y="289.10059" style="stroke: #000000; stroke-width: 0.8"/>
      </g>
     </g>
     <g id="text_9">
      <!-- −6 -->
      <g transform="translate(35.857813 292.899809) scale(0.1 -0.1)">
       <defs>
        <path id="DejaVuSans-2212" d="M 678 2272 
L 4684 2272 
L 4684 1741 
L 678 1741 
L 678 2272 
z
" transform="scale(0.015625)"/>
        <path id="DejaVuSans-36" d="M 2113 2584 
Q 1688 2584 1439 2293 
Q 1191 2003 1191 1497 
Q 1191 994 1439 701 
Q 1688 409 2113 409 
Q 2538 409 2786 701 
Q 3034 994 3034 1497 
Q 3034 2003 2786 2293 
Q 2538 2584 2113 2584 
z
M 3366 4563 
L 3366 3988 
Q 3128 4100 2886 4159 
Q 2644 4219 2406 4219 
Q 1781 4219 1451 3797 
Q 1122 3375 1075 2522 
Q 1259 2794 1537 2939 
Q 1816 3084 2150 3084 
Q 2853 3084 3261 2657 
Q 3669 2231 3669 1497 
Q 3669 778 3244 343 
Q 2819 -91 2113 -91 
Q 1303 -91 875 529 
Q 447 1150 447 2328 
Q 447 3434 972 4092 
Q 1497 4750 2381 4750 
Q 2619 4750 2861 4703 
Q 3103 4656 3366 4563 
z
" transform="scale(0.015625)"/>
       </defs>
       <use xlink:href="#DejaVuSans-2212"/>
       <use xlink:href="#DejaVuSans-36" transform="translate(83.789062 0)"/>
      </g>
     </g>
    </g>
    <g id="ytick_2">
     <g id="line2d_17">
      <path d="M 57.6 247.340969 
L 414.72 247.340969 
" clip-path="url(#pf2e37242b5)" style="fill: none; stroke: #b0b0b0; stroke-width: 0.8; stroke-linecap: square"/>
     </g>
     <g id="line2d_18">
      <g>
       <use xlink:href="#m491db25af4" x="57.6" y="247.340969" style="stroke: #000000; stroke-width: 0.8"/>
      </g>
     </g>
     <g id="text_10">
      <!-- −4 -->
      <g transform="translate(35.857813 251.140188) scale(0.1 -0.1)">
       <defs>
        <path id="DejaVuSans-34" d="M 2419 4116 
L 825 1625 
L 2419 1625 
L 2419 4116 
z
M 2253 4666 
L 3047 4666 
L 3047 1625 
L 3713 1625 
L 3713 1100 
L 3047 1100 
L 3047 0 
L 2419 0 
L 2419 1100 
L 313 1100 
L 313 1709 
L 2253 4666 
z
" transform="scale(0.015625)"/>
       </defs>
       <use xlink:href="#DejaVuSans-2212"/>
       <use xlink:href="#DejaVuSans-34" transform="translate(83.789062 0)"/>
      </g>
     </g>
    </g>
    <g id="ytick_3">
     <g id="line2d_19">
      <path d="M 57.6 205.581348 
L 414.72 205.581348 
" clip-path="url(#pf2e37242b5)" style="fill: none; stroke: #b0b0b0; stroke-width: 0.8; stroke-linecap: square"/>
     </g>
     <g id="line2d_20">
      <g>
       <use xlink:href="#m491db25af4" x="57.6" y="205.581348" style="stroke: #000000; stroke-width: 0.8"/>
      </g>
     </g>
     <g id="text_11">
      <!-- −2 -->
      <g transform="translate(35.857813 209.380567) scale(0.1 -0.1)">
       <use xlink:href="#DejaVuSans-2212"/>
       <use xlink:href="#DejaVuSans-32" transform="translate(83.789062 0)"/>
      </g>
     </g>
    </g>
    <g id="ytick_4">
     <g id="line2d_21">
      <path d="M 57.6 163.821727 
L 414.72 163.821727 
" clip-path="url(#pf2e37242b5)" style="fill: none; stroke: #b0b0b0; stroke-width: 0.8; stroke-linecap: square"/>
     </g>
     <g id="line2d_22">
      <g>
       <use xlink:href="#m491db25af4" x="57.6" y="163.821727" style="stroke: #000000; stroke-width: 0.8"/>
      </g>
     </g>
     <g id="text_12">
      <!-- 0 -->
      <g transform="translate(44.2375 167.620946) scale(0.1 -0.1)">
       <use xlink:href="#DejaVuSans-30"/>
      </g>
     </g>
    </g>
    <g id="ytick_5">
     <g id="line2d_23">
      <path d="M 57.6 122.062106 
L 414.72 122.062106 
" clip-path="url(#pf2e37242b5)" style="fill: none; stroke: #b0b0b0; stroke-width: 0.8; stroke-linecap: square"/>
     </g>
     <g id="line2d_24">
      <g>
       <use xlink:href="#m491db25af4" x="57.6" y="122.062106" style="stroke: #000000; stroke-width: 0.8"/>
      </g>
     </g>
     <g id="text_13">
      <!-- 2 -->
      <g transform="translate(44.2375 125.861325) scale(0.1 -0.1)">
       <use xlink:href="#DejaVuSans-32"/>
      </g>
     </g>
    </g>
    <g id="ytick_6">
     <g id="line2d_25">
      <path d="M 57.6 80.302485 
L 414.72 80.302485 
" clip-path="url(#pf2e37242b5)" style="fill: none; stroke: #b0b0b0; stroke-width: 0.8; stroke-linecap: square"/>
     </g>
     <g id="line2d_26">
      <g>
       <use xlink:href="#m491db25af4" x="57.6" y="80.302485" style="stroke: #000000; stroke-width: 0.8"/>
      </g>
     </g>
     <g id="text_14">
      <!-- 4 -->
      <g transform="translate(44.2375 84.101704) scale(0.1 -0.1)">
       <use xlink:href="#DejaVuSans-34"/>
      </g>
     </g>
    </g>
    <g id="text_15">
     <!-- Fitness -->
     <g transform="translate(29.778125 191.845187) rotate(-90) scale(0.1 -0.1)">
      <defs>
       <path id="DejaVuSans-46" d="M 628 4666 
L 3309 4666 
L 3309 4134 
L 1259 4134 
L 1259 2759 
L 3109 2759 
L 3109 2228 
L 1259 2228 
L 1259 0 
L 628 0 
L 628 4666 
z
" transform="scale(0.015625)"/>
      </defs>
      <use xlink:href="#DejaVuSans-46"/>
      <use xlink:href="#DejaVuSans-69" transform="translate(50.269531 0)"/>
      <use xlink:href="#DejaVuSans-74" transform="translate(78.052734 0)"/>
      <use xlink:href="#DejaVuSans-6e" transform="translate(117.261719 0)"/>
      <use xlink:href="#DejaVuSans-65" transform="translate(180.640625 0)"/>
      <use xlink:href="#DejaVuSans-73" transform="translate(242.164062 0)"/>
      <use xlink:href="#DejaVuSans-73" transform="translate(294.263672 0)"/>
     </g>
    </g>
   </g>
   <g id="line2d_27">
    <path d="M 73.832727 203.306067 
L 74.918528 151.251589 
L 76.00433 141.844925 
L 77.090131 144.423926 
L 78.175932 128.19608 
L 79.261733 130.737803 
L 80.347534 121.968251 
L 81.433335 118.669732 
L 82.519137 123.562617 
L 83.604938 126.718665 
L 84.690739 118.137273 
L 85.77654 118.035754 
L 86.862341 108.482138 
L 87.948142 111.217442 
L 89.033943 112.351458 
L 90.119745 106.015641 
L 91.205546 116.264786 
L 92.291347 110.966399 
L 93.377148 106.483132 
L 94.462949 113.948445 
L 95.54875 104.328484 
L 96.634552 113.689077 
L 97.720353 101.905024 
L 98.806154 102.188614 
L 99.891955 102.759915 
L 100.977756 108.908189 
L 102.063557 102.514357 
L 103.149358 107.224354 
L 104.23516 99.943228 
L 106.406762 100.268711 
L 107.492563 102.694166 
L 108.578364 101.649042 
L 109.664165 103.09494 
L 110.749967 106.029239 
L 111.835768 106.46014 
L 112.921569 109.033356 
L 114.00737 100.780806 
L 115.093171 103.698115 
L 116.178972 104.162632 
L 118.350575 102.808835 
L 119.436376 95.53551 
L 120.522177 107.98521 
L 121.607978 104.110646 
L 122.693779 98.716809 
L 123.77958 108.520007 
L 124.865382 102.694609 
L 125.951183 104.494642 
L 127.036984 103.094222 
L 128.122785 97.166415 
L 129.208586 109.888973 
L 130.294387 98.268973 
L 131.380189 98.754185 
L 132.46599 100.201743 
L 133.551791 98.806907 
L 135.723393 96.706298 
L 136.809194 97.19323 
L 137.894995 104.82492 
L 138.980797 95.20234 
L 140.066598 102.123538 
L 141.152399 100.878189 
L 142.2382 96.615836 
L 143.324001 98.396901 
L 144.409802 100.629536 
L 145.495604 99.769539 
L 146.581405 102.315693 
L 147.667206 99.841296 
L 148.753007 98.01755 
L 149.838808 103.623062 
L 150.924609 99.572191 
L 152.01041 106.943097 
L 153.096212 102.714608 
L 154.182013 103.668086 
L 155.267814 102.267101 
L 156.353615 107.051603 
L 157.439416 102.981173 
L 158.525217 94.538028 
L 159.611019 98.685457 
L 160.69682 101.880328 
L 161.782621 100.461846 
L 162.868422 103.18162 
L 163.954223 102.648054 
L 165.040024 102.47397 
L 166.125825 104.72943 
L 167.211627 102.718541 
L 168.297428 104.212276 
L 169.383229 100.734077 
L 170.46903 95.241198 
L 171.554831 103.312718 
L 172.640632 108.560754 
L 173.726434 101.878692 
L 174.812235 108.463366 
L 175.898036 106.342986 
L 176.983837 108.456878 
L 178.069638 102.045411 
L 179.155439 109.288706 
L 180.24124 107.25185 
L 181.327042 103.443367 
L 182.412843 101.346053 
L 183.498644 102.451101 
L 184.584445 103.096544 
L 186.756047 102.389658 
L 187.841849 99.268515 
L 188.92765 98.883859 
L 190.013451 102.458788 
L 191.099252 102.639317 
L 192.185053 105.638959 
L 193.270854 100.60011 
L 194.356656 96.149569 
L 195.442457 98.803728 
L 196.528258 98.385837 
L 197.614059 96.867884 
L 198.69986 96.476345 
L 199.785661 97.717625 
L 200.871462 97.709501 
L 201.957264 94.522584 
L 203.043065 97.234922 
L 204.128866 94.556215 
L 205.214667 99.233702 
L 206.300468 101.371944 
L 207.386269 97.044334 
L 208.472071 103.782439 
L 209.557872 100.451624 
L 210.643673 101.04245 
L 211.729474 99.350616 
L 212.815275 95.668202 
L 213.901076 98.487042 
L 214.986877 99.507757 
L 216.072679 101.889191 
L 217.15848 102.61836 
L 218.244281 97.731295 
L 219.330082 98.268411 
L 220.415883 93.964818 
L 221.501684 97.188393 
L 222.587486 96.437452 
L 223.673287 97.788321 
L 224.759088 96.495467 
L 225.844889 96.019483 
L 226.93069 93.367584 
L 228.016491 99.554109 
L 229.102292 101.862649 
L 230.188094 100.171036 
L 231.273895 98.254915 
L 232.359696 101.264751 
L 233.445497 100.721158 
L 234.531298 107.279037 
L 235.617099 96.276336 
L 236.702901 99.5811 
L 237.788702 103.429206 
L 238.874503 98.62126 
L 239.960304 97.880409 
L 241.046105 95.787616 
L 242.131906 101.39469 
L 243.217708 97.385416 
L 244.303509 98.197341 
L 245.38931 98.390323 
L 246.475111 100.262866 
L 247.560912 103.889582 
L 248.646713 99.442541 
L 249.732514 100.300146 
L 250.818316 104.164894 
L 251.904117 101.00924 
L 252.989918 99.495228 
L 254.075719 100.567713 
L 255.16152 100.261731 
L 256.247321 101.386668 
L 257.333123 95.860128 
L 258.418924 99.498338 
L 259.504725 102.493426 
L 260.590526 103.657954 
L 261.676327 97.587907 
L 262.762128 98.932028 
L 263.847929 103.543965 
L 264.933731 100.462529 
L 266.019532 99.819196 
L 267.105333 97.609676 
L 268.191134 96.381443 
L 269.276935 95.63333 
L 270.362736 94.277345 
L 271.448538 100.438914 
L 272.534339 96.181487 
L 273.62014 99.354528 
L 274.705941 98.630797 
L 275.791742 97.588264 
L 276.877543 97.583004 
L 277.963344 96.634684 
L 279.049146 95.858705 
L 281.220748 98.912799 
L 282.306549 98.868712 
L 283.39235 97.27237 
L 284.478151 97.674079 
L 285.563953 95.941119 
L 286.649754 96.467044 
L 287.735555 98.538063 
L 288.821356 98.707968 
L 289.907157 99.102025 
L 290.992958 96.045424 
L 292.07876 95.847696 
L 293.164561 96.625011 
L 294.250362 96.781251 
L 295.336163 100.448876 
L 296.421964 100.795983 
L 297.507765 101.498752 
L 298.593566 102.845986 
L 299.679368 102.012459 
L 300.765169 100.670857 
L 301.85097 100.797615 
L 302.936771 102.329729 
L 304.022572 98.019101 
L 305.108373 96.765214 
L 306.194175 96.572688 
L 307.279976 98.54301 
L 308.365777 98.800558 
L 309.451578 99.679682 
L 310.537379 103.114178 
L 311.62318 101.412271 
L 312.708981 103.291126 
L 313.794783 106.566032 
L 314.880584 106.219964 
L 315.966385 99.529952 
L 317.052186 99.129504 
L 318.137987 100.754964 
L 319.223788 105.804911 
L 320.30959 106.308792 
L 321.395391 101.271332 
L 322.481192 99.116061 
L 323.566993 110.148654 
L 324.652794 100.308994 
L 325.738595 104.745235 
L 326.824396 104.232268 
L 327.910198 97.056885 
L 328.995999 100.77351 
L 330.0818 102.341202 
L 331.167601 95.902715 
L 332.253402 94.89403 
L 333.339203 97.986499 
L 334.425005 97.786243 
L 335.510806 96.65522 
L 336.596607 101.124831 
L 337.682408 106.359672 
L 338.768209 98.627178 
L 339.85401 100.061317 
L 340.939811 96.77128 
L 342.025613 112.506891 
L 343.111414 102.980304 
L 344.197215 101.125211 
L 345.283016 103.63474 
L 346.368817 108.205526 
L 347.454618 99.002272 
L 348.54042 104.77695 
L 349.626221 99.031623 
L 350.712022 102.975871 
L 351.797823 108.401351 
L 352.883624 100.804474 
L 353.969425 97.744812 
L 355.055227 98.939667 
L 356.141028 98.589114 
L 357.226829 95.537334 
L 358.31263 97.748433 
L 359.398431 102.035358 
L 360.484232 101.410484 
L 361.570033 96.477075 
L 363.741636 99.89713 
L 364.827437 97.142416 
L 365.913238 107.207274 
L 366.999039 100.342569 
L 368.08484 102.226916 
L 369.170642 98.177662 
L 370.256443 104.930498 
L 371.342244 104.651982 
L 372.428045 101.537709 
L 373.513846 99.984301 
L 374.599647 99.759095 
L 375.685448 100.20189 
L 376.77125 98.668422 
L 377.857051 95.586409 
L 378.942852 98.829561 
L 380.028653 104.807688 
L 381.114454 100.268313 
L 382.200255 101.507323 
L 383.286057 102.555425 
L 384.371858 111.330827 
L 385.457659 95.82428 
L 386.54346 95.893004 
L 387.629261 98.45731 
L 388.715062 94.624661 
L 389.800863 99.149177 
L 390.886665 96.143869 
L 391.972466 96.137938 
L 393.058267 91.231298 
L 394.144068 97.307762 
L 395.229869 94.556223 
L 396.31567 92.685073 
L 397.401472 96.141812 
L 398.487273 95.298627 
L 398.487273 95.298627 
" clip-path="url(#pf2e37242b5)" style="fill: none; stroke: #0000ff; stroke-width: 1.5; stroke-linecap: square"/>
   </g>
   <g id="line2d_28">
    <path d="M 73.832727 295.488 
L 74.918528 219.751026 
L 76.00433 204.40712 
L 77.090131 214.481622 
L 78.175932 185.767312 
L 79.261733 192.837775 
L 80.347534 180.43105 
L 81.433335 174.798242 
L 82.519137 181.725267 
L 83.604938 187.852648 
L 84.690739 177.816792 
L 85.77654 176.057287 
L 86.862341 152.678824 
L 87.948142 159.558651 
L 89.033943 161.292506 
L 90.119745 138.477327 
L 91.205546 178.311962 
L 92.291347 161.573294 
L 93.377148 152.279352 
L 94.462949 167.775768 
L 95.54875 141.696673 
L 96.634552 168.883335 
L 97.720353 130.261799 
L 98.806154 129.373201 
L 99.891955 137.703761 
L 100.977756 158.925737 
L 102.063557 134.493889 
L 103.149358 154.369922 
L 104.23516 130.912571 
L 105.320961 124.317608 
L 106.406762 140.359397 
L 107.492563 145.334992 
L 108.578364 138.924124 
L 109.664165 135.767661 
L 110.749967 142.231598 
L 111.835768 150.603793 
L 112.921569 157.770316 
L 114.00737 131.416987 
L 115.093171 139.97735 
L 116.178972 143.438135 
L 117.264773 140.850318 
L 118.350575 142.97914 
L 119.436376 120.957563 
L 120.522177 157.90224 
L 121.607978 145.614604 
L 122.693779 128.599202 
L 123.77958 157.378103 
L 124.865382 146.445822 
L 125.951183 148.800842 
L 127.036984 146.104861 
L 128.122785 116.456466 
L 129.208586 164.85366 
L 130.294387 123.039156 
L 131.380189 119.095109 
L 132.46599 129.595733 
L 133.551791 130.883089 
L 134.637592 116.833836 
L 135.723393 121.546832 
L 136.809194 118.697107 
L 137.894995 148.485379 
L 138.980797 120.692124 
L 140.066598 131.047458 
L 141.152399 135.262138 
L 142.2382 112.369207 
L 143.324001 122.441111 
L 144.409802 134.321276 
L 145.495604 124.304203 
L 146.581405 142.908111 
L 148.753007 121.249931 
L 149.838808 139.574517 
L 150.924609 128.941158 
L 152.01041 149.385627 
L 153.096212 142.146631 
L 154.182013 142.030703 
L 155.267814 141.370314 
L 156.353615 156.510945 
L 157.439416 149.531144 
L 158.525217 116.394946 
L 159.611019 120.034218 
L 160.69682 139.469266 
L 161.782621 131.799465 
L 162.868422 137.599367 
L 163.954223 139.933185 
L 165.040024 135.295689 
L 166.125825 139.522457 
L 167.211627 141.862255 
L 168.297428 145.092394 
L 169.383229 127.990508 
L 170.46903 117.366935 
L 171.554831 143.910685 
L 172.640632 158.212208 
L 173.726434 127.162441 
L 174.812235 158.010652 
L 175.898036 154.075167 
L 176.983837 159.115714 
L 178.069638 134.436069 
L 179.155439 152.609082 
L 180.24124 152.719004 
L 182.412843 125.880049 
L 183.498644 131.152758 
L 184.584445 134.099803 
L 185.670246 132.630242 
L 186.756047 135.537827 
L 187.841849 123.661291 
L 188.92765 117.41175 
L 190.013451 136.99122 
L 191.099252 134.721301 
L 192.185053 153.432263 
L 193.270854 122.049723 
L 194.356656 111.795811 
L 195.442457 126.979831 
L 196.528258 129.587514 
L 197.614059 114.394115 
L 198.69986 119.209882 
L 199.785661 127.319511 
L 200.871462 127.026229 
L 201.957264 115.987319 
L 203.043065 116.840366 
L 204.128866 109.741327 
L 205.214667 125.899776 
L 206.300468 127.862927 
L 207.386269 113.806089 
L 208.472071 139.987538 
L 209.557872 137.01124 
L 210.643673 126.987186 
L 211.729474 129.791986 
L 212.815275 119.095531 
L 213.901076 131.089296 
L 214.986877 130.097585 
L 216.072679 130.537271 
L 217.15848 143.970174 
L 218.244281 117.902689 
L 219.330082 117.325104 
L 220.415883 110.857244 
L 221.501684 115.677075 
L 222.587486 113.372248 
L 223.673287 127.169179 
L 224.759088 113.750301 
L 226.93069 108.741768 
L 228.016491 130.871318 
L 229.102292 141.074511 
L 230.188094 133.0066 
L 231.273895 136.69446 
L 232.359696 126.659983 
L 233.445497 132.192126 
L 234.531298 154.196294 
L 235.617099 113.150357 
L 236.702901 128.148243 
L 237.788702 141.421269 
L 238.874503 117.761493 
L 239.960304 120.752763 
L 241.046105 111.994846 
L 242.131906 131.627668 
L 243.217708 123.316789 
L 244.303509 116.954671 
L 245.38931 124.229087 
L 246.475111 139.074565 
L 247.560912 136.626939 
L 248.646713 125.75799 
L 249.732514 130.25133 
L 250.818316 140.48363 
L 251.904117 124.007004 
L 252.989918 115.951227 
L 254.075719 121.982988 
L 255.16152 119.936776 
L 256.247321 135.402468 
L 257.333123 111.682156 
L 258.418924 130.666131 
L 259.504725 137.873548 
L 260.590526 151.429681 
L 261.676327 115.434412 
L 262.762128 126.323143 
L 263.847929 133.17766 
L 264.933731 117.2164 
L 266.019532 119.070949 
L 267.105333 113.394514 
L 268.191134 111.140029 
L 269.276935 110.746465 
L 270.362736 108.795469 
L 271.448538 125.611881 
L 272.534339 112.532807 
L 273.62014 127.601734 
L 274.705941 117.619593 
L 275.791742 114.467471 
L 276.877543 115.510419 
L 277.963344 113.745696 
L 279.049146 113.902089 
L 280.134947 113.408086 
L 281.220748 123.12568 
L 282.306549 115.120848 
L 283.39235 111.709384 
L 284.478151 112.507966 
L 285.563953 108.156707 
L 286.649754 111.331696 
L 287.735555 127.310108 
L 288.821356 116.249472 
L 289.907157 127.31826 
L 290.992958 108.757496 
L 292.07876 110.34833 
L 293.164561 115.310359 
L 294.250362 110.044738 
L 295.336163 130.90743 
L 296.421964 122.058237 
L 297.507765 124.614737 
L 298.593566 136.568325 
L 299.679368 120.424057 
L 300.765169 118.573721 
L 301.85097 122.070046 
L 302.936771 140.312536 
L 304.022572 118.965209 
L 305.108373 113.143674 
L 306.194175 113.590576 
L 307.279976 124.161009 
L 308.365777 116.3934 
L 309.451578 126.646403 
L 310.537379 141.052328 
L 311.62318 134.944858 
L 312.708981 142.741069 
L 313.794783 146.70418 
L 314.880584 149.712412 
L 315.966385 126.088043 
L 317.052186 121.873837 
L 318.137987 120.777057 
L 319.223788 150.001997 
L 320.30959 153.397365 
L 321.395391 127.184473 
L 322.481192 131.244679 
L 323.566993 164.240505 
L 324.652794 122.34793 
L 325.738595 142.058179 
L 326.824396 148.83511 
L 327.910198 113.843936 
L 328.995999 131.309532 
L 330.0818 140.755343 
L 331.167601 125.695261 
L 332.253402 108.802945 
L 333.339203 128.164869 
L 334.425005 125.99204 
L 335.510806 112.434275 
L 336.596607 131.180298 
L 337.682408 151.978327 
L 338.768209 128.523451 
L 339.85401 126.602072 
L 340.939811 111.583962 
L 342.025613 171.445782 
L 343.111414 142.843399 
L 344.197215 131.569178 
L 345.283016 148.793966 
L 346.368817 150.371155 
L 347.454618 126.996791 
L 348.54042 136.392096 
L 349.626221 117.483637 
L 351.797823 154.722034 
L 352.883624 132.755287 
L 353.969425 113.47302 
L 355.055227 124.749653 
L 356.141028 128.407812 
L 357.226829 109.216187 
L 358.31263 118.252268 
L 359.398431 131.110786 
L 361.570033 112.428673 
L 362.655835 121.633897 
L 363.741636 124.473986 
L 364.827437 114.592888 
L 365.913238 150.317183 
L 366.999039 133.121951 
L 368.08484 140.915006 
L 369.170642 117.820988 
L 370.256443 152.905047 
L 371.342244 145.483209 
L 373.513846 126.849797 
L 374.599647 139.097661 
L 375.685448 139.396988 
L 377.857051 116.101227 
L 378.942852 123.961923 
L 380.028653 146.86634 
L 381.114454 132.409584 
L 382.200255 138.818813 
L 383.286057 138.914702 
L 384.371858 167.68019 
L 385.457659 125.939246 
L 386.54346 114.742742 
L 387.629261 133.127928 
L 388.715062 123.991632 
L 389.800863 136.282963 
L 390.886665 126.396939 
L 391.972466 127.416097 
L 393.058267 105.00442 
L 394.144068 132.458532 
L 395.229869 112.612661 
L 396.31567 107.374768 
L 397.401472 118.979308 
L 398.487273 116.862361 
L 398.487273 116.862361 
" clip-path="url(#pf2e37242b5)" style="fill: none; stroke-dasharray: 9.6,2.4,1.5,2.4; stroke-dashoffset: 0; stroke: #008000; stroke-width: 1.5"/>
   </g>
   <g id="line2d_29">
    <path d="M 73.832727 111.124134 
L 74.918528 82.752152 
L 76.00433 79.28273 
L 77.090131 74.366229 
L 78.175932 70.624848 
L 79.261733 68.637831 
L 80.347534 63.505452 
L 81.433335 62.541221 
L 82.519137 65.399967 
L 83.604938 65.584681 
L 84.690739 58.457754 
L 85.77654 60.01422 
L 86.862341 64.285451 
L 87.948142 62.876234 
L 89.033943 63.41041 
L 90.119745 73.553954 
L 91.205546 54.217611 
L 92.291347 60.359504 
L 93.377148 60.686912 
L 94.462949 60.121122 
L 95.54875 66.960295 
L 96.634552 58.49482 
L 97.720353 73.548248 
L 98.806154 75.004028 
L 99.891955 67.816069 
L 100.977756 58.890641 
L 102.063557 70.534825 
L 103.149358 60.078785 
L 104.23516 68.973885 
L 105.320961 75.967644 
L 106.406762 60.178025 
L 107.492563 60.053341 
L 108.578364 64.37396 
L 109.664165 70.422218 
L 110.749967 69.82688 
L 111.835768 62.316487 
L 112.921569 60.296395 
L 114.00737 70.144625 
L 116.178972 64.887128 
L 117.264773 66.172638 
L 118.350575 62.63853 
L 119.436376 70.113456 
L 120.522177 58.068181 
L 121.607978 62.606687 
L 122.693779 68.834416 
L 123.77958 59.661912 
L 124.865382 58.943396 
L 125.951183 60.188441 
L 127.036984 60.083584 
L 128.122785 77.876365 
L 129.208586 54.924287 
L 130.294387 73.498791 
L 131.380189 78.413261 
L 132.46599 70.807752 
L 133.551791 66.730726 
L 134.637592 78.676735 
L 135.723393 71.865763 
L 136.809194 75.689354 
L 137.894995 61.164462 
L 138.980797 69.712556 
L 140.066598 73.199617 
L 141.152399 66.49424 
L 142.2382 80.862464 
L 143.324001 74.352692 
L 144.409802 66.937796 
L 145.495604 75.234874 
L 146.581405 61.723275 
L 147.667206 67.556013 
L 148.753007 74.785169 
L 149.838808 67.671607 
L 150.924609 70.203224 
L 152.01041 64.500566 
L 153.096212 63.282584 
L 154.182013 65.305468 
L 155.267814 63.163888 
L 156.353615 57.592261 
L 157.439416 56.431203 
L 158.525217 72.681109 
L 159.611019 77.336697 
L 160.69682 64.29139 
L 161.782621 69.124227 
L 162.868422 68.763874 
L 163.954223 65.362924 
L 165.040024 69.652251 
L 166.125825 69.936403 
L 167.211627 63.574827 
L 168.297428 63.332157 
L 169.383229 73.477646 
L 170.46903 73.115461 
L 171.554831 62.714752 
L 172.640632 58.9093 
L 173.726434 76.594943 
L 174.812235 58.916081 
L 175.898036 58.610806 
L 176.983837 57.798042 
L 178.069638 69.654753 
L 179.155439 65.968331 
L 180.24124 61.784696 
L 181.327042 67.847179 
L 182.412843 76.812057 
L 183.498644 73.749443 
L 184.584445 72.093285 
L 185.670246 72.78848 
L 186.756047 69.241488 
L 188.92765 80.355968 
L 190.013451 67.926356 
L 191.099252 70.557333 
L 192.185053 57.845654 
L 193.270854 79.150496 
L 194.356656 80.503328 
L 195.442457 70.627624 
L 196.528258 67.18416 
L 197.614059 79.341654 
L 199.785661 68.115738 
L 200.871462 68.392772 
L 203.043065 77.629478 
L 204.128866 79.371103 
L 205.214667 72.567628 
L 206.300468 74.88096 
L 207.386269 80.28258 
L 208.472071 67.577339 
L 209.557872 63.892008 
L 210.643673 75.097713 
L 211.729474 68.909246 
L 212.815275 72.240873 
L 213.901076 65.884787 
L 214.986877 68.917929 
L 216.072679 73.241112 
L 217.15848 61.266546 
L 218.244281 77.559902 
L 219.330082 79.211719 
L 220.415883 77.072391 
L 221.501684 78.69971 
L 222.587486 79.502656 
L 223.673287 68.407463 
L 224.759088 79.240633 
L 225.844889 80.685409 
L 226.93069 77.9934 
L 228.016491 68.236899 
L 229.102292 62.650788 
L 230.188094 67.335471 
L 231.273895 59.81537 
L 232.359696 75.869519 
L 233.445497 69.250191 
L 234.531298 60.36178 
L 235.617099 79.402316 
L 236.702901 71.013956 
L 237.788702 65.437144 
L 238.874503 79.481028 
L 239.960304 75.008056 
L 241.046105 79.580386 
L 242.131906 71.161713 
L 243.217708 71.454043 
L 244.303509 79.440012 
L 245.38931 72.551559 
L 246.475111 61.451167 
L 247.560912 71.152226 
L 248.646713 73.127091 
L 250.818316 67.846158 
L 251.904117 78.011476 
L 252.989918 83.039229 
L 254.075719 79.152437 
L 255.16152 80.586687 
L 256.247321 67.370868 
L 257.333123 80.0381 
L 258.418924 68.330545 
L 259.504725 67.113304 
L 260.590526 55.886227 
L 261.676327 79.741403 
L 262.762128 71.540912 
L 263.847929 73.910271 
L 264.933731 83.708657 
L 266.019532 80.567442 
L 267.105333 81.824839 
L 268.191134 81.622857 
L 269.276935 80.520195 
L 270.362736 79.75922 
L 271.448538 75.265947 
L 272.534339 79.830167 
L 273.62014 71.107322 
L 274.705941 79.642001 
L 275.791742 80.709058 
L 276.877543 79.655589 
L 277.963344 79.523672 
L 279.049146 77.815321 
L 280.134947 81.194976 
L 281.220748 74.699918 
L 282.306549 82.616575 
L 283.39235 82.835356 
L 284.478151 82.840192 
L 285.563953 83.725532 
L 286.649754 81.602391 
L 287.735555 69.766019 
L 288.821356 81.166464 
L 289.907157 70.885791 
L 290.992958 83.333353 
L 292.07876 81.347062 
L 293.164561 77.939662 
L 294.250362 83.517764 
L 295.336163 69.990322 
L 296.421964 79.533729 
L 297.507765 78.382768 
L 298.593566 69.123647 
L 299.679368 83.600861 
L 300.765169 82.767994 
L 301.85097 79.525183 
L 302.936771 64.346922 
L 304.022572 77.072992 
L 305.108373 80.386754 
L 306.194175 79.5548 
L 307.279976 72.925011 
L 308.365777 81.207715 
L 309.451578 72.712961 
L 310.537379 65.176029 
L 311.62318 67.879684 
L 312.708981 63.841182 
L 313.794783 66.427885 
L 314.880584 62.727516 
L 315.966385 72.971861 
L 317.052186 76.385171 
L 318.137987 80.73287 
L 319.223788 61.607826 
L 320.30959 59.220219 
L 321.395391 75.35819 
L 322.481192 66.987443 
L 323.566993 56.056804 
L 324.652794 78.270058 
L 325.738595 67.432291 
L 326.824396 59.629425 
L 327.910198 80.269834 
L 328.995999 70.237489 
L 330.0818 63.927062 
L 331.167601 66.11017 
L 332.253402 80.985116 
L 333.339203 67.80813 
L 334.425005 69.580445 
L 335.510806 80.876165 
L 337.682408 60.741018 
L 338.768209 68.730904 
L 339.85401 73.520561 
L 340.939811 81.958599 
L 342.025613 53.568 
L 343.111414 63.11721 
L 344.197215 70.681244 
L 345.283016 58.475515 
L 346.368817 66.039897 
L 347.454618 71.007754 
L 348.54042 73.161805 
L 349.626221 80.579608 
L 350.712022 69.225884 
L 351.797823 62.080668 
L 352.883624 68.853661 
L 353.969425 82.016605 
L 355.055227 73.129681 
L 356.141028 68.770417 
L 357.226829 81.858482 
L 359.398431 72.959931 
L 360.484232 81.455032 
L 361.570033 80.525477 
L 362.655835 74.950871 
L 363.741636 75.320275 
L 364.827437 79.691945 
L 365.913238 64.097366 
L 366.999039 67.563188 
L 368.08484 63.538826 
L 369.170642 78.534335 
L 370.256443 56.955948 
L 371.342244 63.820755 
L 372.428045 66.644376 
L 373.513846 73.118805 
L 374.599647 60.420528 
L 375.685448 61.006791 
L 376.77125 69.142112 
L 377.857051 75.071591 
L 378.942852 73.697199 
L 380.028653 62.749036 
L 381.114454 68.127042 
L 382.200255 64.195832 
L 383.286057 66.196148 
L 384.371858 54.981464 
L 386.54346 77.043267 
L 387.629261 63.786692 
L 388.715062 65.25769 
L 389.800863 62.01539 
L 390.886665 65.890798 
L 391.972466 64.859778 
L 393.058267 77.458176 
L 394.144068 62.156991 
L 395.229869 76.499785 
L 396.31567 77.995377 
L 397.401472 73.304316 
L 398.487273 73.734892 
L 398.487273 73.734892 
" clip-path="url(#pf2e37242b5)" style="fill: none; stroke-dasharray: 9.6,2.4,1.5,2.4; stroke-dashoffset: 0; stroke: #008000; stroke-width: 1.5"/>
   </g>
   <g id="line2d_30">
    <path d="M 73.832727 90.960847 
L 74.918528 80.312448 
L 266.019532 80.302485 
L 267.105333 77.525385 
L 269.276935 77.525385 
L 270.362736 76.499229 
L 273.62014 76.499229 
L 274.705941 76.382685 
L 276.877543 76.382685 
L 277.963344 75.540652 
L 280.134947 75.534172 
L 281.220748 74.433617 
L 288.821356 74.433617 
L 289.907157 74.28908 
L 292.07876 74.28908 
L 294.250362 73.361686 
L 295.336163 73.326686 
L 296.421964 71.681347 
L 297.507765 70.431462 
L 304.022572 70.431462 
L 305.108373 69.979633 
L 314.880584 69.979633 
L 315.966385 68.823481 
L 317.052186 68.823481 
L 318.137987 66.643956 
L 327.910198 66.643956 
L 328.995999 65.73215 
L 330.0818 63.847228 
L 331.167601 63.847228 
L 332.253402 63.118739 
L 345.283016 63.118739 
L 346.368817 62.588784 
L 353.969425 62.588784 
L 355.055227 62.079859 
L 370.256443 62.079859 
L 371.342244 61.396165 
L 386.54346 61.396165 
L 387.629261 60.794158 
L 398.487273 60.794158 
L 398.487273 60.794158 
" clip-path="url(#pf2e37242b5)" style="fill: none; stroke: #ff0000; stroke-width: 1.5; stroke-linecap: square"/>
   </g>
   <g id="patch_3">
    <path d="M 57.6 307.584 
L 57.6 41.472 
" style="fill: none; stroke: #000000; stroke-width: 0.8; stroke-linejoin: miter; stroke-linecap: square"/>
   </g>
   <g id="patch_4">
    <path d="M 414.72 307.584 
L 414.72 41.472 
" style="fill: none; stroke: #000000; stroke-width: 0.8; stroke-linejoin: miter; stroke-linecap: square"/>
   </g>
   <g id="patch_5">
    <path d="M 57.6 307.584 
L 414.72 307.584 
" style="fill: none; stroke: #000000; stroke-width: 0.8; stroke-linejoin: miter; stroke-linecap: square"/>
   </g>
   <g id="patch_6">
    <path d="M 57.6 41.472 
L 414.72 41.472 
" style="fill: none; stroke: #000000; stroke-width: 0.8; stroke-linejoin: miter; stroke-linecap: square"/>
   </g>
   <g id="text_16">
    <!-- Population's average and best fitness -->
    <g transform="translate(123.529687 35.472) scale(0.12 -0.12)">
     <defs>
      <path id="DejaVuSans-50" d="M 1259 4147 
L 1259 2394 
L 2053 2394 
Q 2494 2394 2734 2622 
Q 2975 2850 2975 3272 
Q 2975 3691 2734 3919 
Q 2494 4147 2053 4147 
L 1259 4147 
z
M 628 4666 
L 2053 4666 
Q 2838 4666 3239 4311 
Q 3641 3956 3641 3272 
Q 3641 2581 3239 2228 
Q 2838 1875 2053 1875 
L 1259 1875 
L 1259 0 
L 628 0 
L 628 4666 
z
" transform="scale(0.015625)"/>
      <path id="DejaVuSans-70" d="M 1159 525 
L 1159 -1331 
L 581 -1331 
L 581 3500 
L 1159 3500 
L 1159 2969 
Q 1341 3281 1617 3432 
Q 1894 3584 2278 3584 
Q 2916 3584 3314 3078 
Q 3713 2572 3713 1747 
Q 3713 922 3314 415 
Q 2916 -91 2278 -91 
Q 1894 -91 1617 61 
Q 1341 213 1159 525 
z
M 3116 1747 
Q 3116 2381 2855 2742 
Q 2594 3103 2138 3103 
Q 1681 3103 1420 2742 
Q 1159 2381 1159 1747 
Q 1159 1113 1420 752 
Q 1681 391 2138 391 
Q 2594 391 2855 752 
Q 3116 1113 3116 1747 
z
" transform="scale(0.015625)"/>
      <path id="DejaVuSans-75" d="M 544 1381 
L 544 3500 
L 1119 3500 
L 1119 1403 
Q 1119 906 1312 657 
Q 1506 409 1894 409 
Q 2359 409 2629 706 
Q 2900 1003 2900 1516 
L 2900 3500 
L 3475 3500 
L 3475 0 
L 2900 0 
L 2900 538 
Q 2691 219 2414 64 
Q 2138 -91 1772 -91 
Q 1169 -91 856 284 
Q 544 659 544 1381 
z
M 1991 3584 
L 1991 3584 
z
" transform="scale(0.015625)"/>
      <path id="DejaVuSans-6c" d="M 603 4863 
L 1178 4863 
L 1178 0 
L 603 0 
L 603 4863 
z
" transform="scale(0.015625)"/>
      <path id="DejaVuSans-27" d="M 1147 4666 
L 1147 2931 
L 616 2931 
L 616 4666 
L 1147 4666 
z
" transform="scale(0.015625)"/>
      <path id="DejaVuSans-20" transform="scale(0.015625)"/>
      <path id="DejaVuSans-76" d="M 191 3500 
L 800 3500 
L 1894 563 
L 2988 3500 
L 3597 3500 
L 2284 0 
L 1503 0 
L 191 3500 
z
" transform="scale(0.015625)"/>
      <path id="DejaVuSans-67" d="M 2906 1791 
Q 2906 2416 2648 2759 
Q 2391 3103 1925 3103 
Q 1463 3103 1205 2759 
Q 947 2416 947 1791 
Q 947 1169 1205 825 
Q 1463 481 1925 481 
Q 2391 481 2648 825 
Q 2906 1169 2906 1791 
z
M 3481 434 
Q 3481 -459 3084 -895 
Q 2688 -1331 1869 -1331 
Q 1566 -1331 1297 -1286 
Q 1028 -1241 775 -1147 
L 775 -588 
Q 1028 -725 1275 -790 
Q 1522 -856 1778 -856 
Q 2344 -856 2625 -561 
Q 2906 -266 2906 331 
L 2906 616 
Q 2728 306 2450 153 
Q 2172 0 1784 0 
Q 1141 0 747 490 
Q 353 981 353 1791 
Q 353 2603 747 3093 
Q 1141 3584 1784 3584 
Q 2172 3584 2450 3431 
Q 2728 3278 2906 2969 
L 2906 3500 
L 3481 3500 
L 3481 434 
z
" transform="scale(0.015625)"/>
      <path id="DejaVuSans-64" d="M 2906 2969 
L 2906 4863 
L 3481 4863 
L 3481 0 
L 2906 0 
L 2906 525 
Q 2725 213 2448 61 
Q 2172 -91 1784 -91 
Q 1150 -91 751 415 
Q 353 922 353 1747 
Q 353 2572 751 3078 
Q 1150 3584 1784 3584 
Q 2172 3584 2448 3432 
Q 2725 3281 2906 2969 
z
M 947 1747 
Q 947 1113 1208 752 
Q 1469 391 1925 391 
Q 2381 391 2643 752 
Q 2906 1113 2906 1747 
Q 2906 2381 2643 2742 
Q 2381 3103 1925 3103 
Q 1469 3103 1208 2742 
Q 947 2381 947 1747 
z
" transform="scale(0.015625)"/>
      <path id="DejaVuSans-62" d="M 3116 1747 
Q 3116 2381 2855 2742 
Q 2594 3103 2138 3103 
Q 1681 3103 1420 2742 
Q 1159 2381 1159 1747 
Q 1159 1113 1420 752 
Q 1681 391 2138 391 
Q 2594 391 2855 752 
Q 3116 1113 3116 1747 
z
M 1159 2969 
Q 1341 3281 1617 3432 
Q 1894 3584 2278 3584 
Q 2916 3584 3314 3078 
Q 3713 2572 3713 1747 
Q 3713 922 3314 415 
Q 2916 -91 2278 -91 
Q 1894 -91 1617 61 
Q 1341 213 1159 525 
L 1159 0 
L 581 0 
L 581 4863 
L 1159 4863 
L 1159 2969 
z
" transform="scale(0.015625)"/>
      <path id="DejaVuSans-66" d="M 2375 4863 
L 2375 4384 
L 1825 4384 
Q 1516 4384 1395 4259 
Q 1275 4134 1275 3809 
L 1275 3500 
L 2222 3500 
L 2222 3053 
L 1275 3053 
L 1275 0 
L 697 0 
L 697 3053 
L 147 3053 
L 147 3500 
L 697 3500 
L 697 3744 
Q 697 4328 969 4595 
Q 1241 4863 1831 4863 
L 2375 4863 
z
" transform="scale(0.015625)"/>
     </defs>
     <use xlink:href="#DejaVuSans-50"/>
     <use xlink:href="#DejaVuSans-6f" transform="translate(56.677734 0)"/>
     <use xlink:href="#DejaVuSans-70" transform="translate(117.859375 0)"/>
     <use xlink:href="#DejaVuSans-75" transform="translate(181.335938 0)"/>
     <use xlink:href="#DejaVuSans-6c" transform="translate(244.714844 0)"/>
     <use xlink:href="#DejaVuSans-61" transform="translate(272.498047 0)"/>
     <use xlink:href="#DejaVuSans-74" transform="translate(333.777344 0)"/>
     <use xlink:href="#DejaVuSans-69" transform="translate(372.986328 0)"/>
     <use xlink:href="#DejaVuSans-6f" transform="translate(400.769531 0)"/>
     <use xlink:href="#DejaVuSans-6e" transform="translate(461.951172 0)"/>
     <use xlink:href="#DejaVuSans-27" transform="translate(525.330078 0)"/>
     <use xlink:href="#DejaVuSans-73" transform="translate(552.820312 0)"/>
     <use xlink:href="#DejaVuSans-20" transform="translate(604.919922 0)"/>
     <use xlink:href="#DejaVuSans-61" transform="translate(636.707031 0)"/>
     <use xlink:href="#DejaVuSans-76" transform="translate(697.986328 0)"/>
     <use xlink:href="#DejaVuSans-65" transform="translate(757.166016 0)"/>
     <use xlink:href="#DejaVuSans-72" transform="translate(818.689453 0)"/>
     <use xlink:href="#DejaVuSans-61" transform="translate(859.802734 0)"/>
     <use xlink:href="#DejaVuSans-67" transform="translate(921.082031 0)"/>
     <use xlink:href="#DejaVuSans-65" transform="translate(984.558594 0)"/>
     <use xlink:href="#DejaVuSans-20" transform="translate(1046.082031 0)"/>
     <use xlink:href="#DejaVuSans-61" transform="translate(1077.869141 0)"/>
     <use xlink:href="#DejaVuSans-6e" transform="translate(1139.148438 0)"/>
     <use xlink:href="#DejaVuSans-64" transform="translate(1202.527344 0)"/>
     <use xlink:href="#DejaVuSans-20" transform="translate(1266.003906 0)"/>
     <use xlink:href="#DejaVuSans-62" transform="translate(1297.791016 0)"/>
     <use xlink:href="#DejaVuSans-65" transform="translate(1361.267578 0)"/>
     <use xlink:href="#DejaVuSans-73" transform="translate(1422.791016 0)"/>
     <use xlink:href="#DejaVuSans-74" transform="translate(1474.890625 0)"/>
     <use xlink:href="#DejaVuSans-20" transform="translate(1514.099609 0)"/>
     <use xlink:href="#DejaVuSans-66" transform="translate(1545.886719 0)"/>
     <use xlink:href="#DejaVuSans-69" transform="translate(1581.091797 0)"/>
     <use xlink:href="#DejaVuSans-74" transform="translate(1608.875 0)"/>
     <use xlink:href="#DejaVuSans-6e" transform="translate(1648.083984 0)"/>
     <use xlink:href="#DejaVuSans-65" transform="translate(1711.462891 0)"/>
     <use xlink:href="#DejaVuSans-73" transform="translate(1772.986328 0)"/>
     <use xlink:href="#DejaVuSans-73" transform="translate(1825.085938 0)"/>
    </g>
   </g>
   <g id="legend_1">
    <g id="patch_7">
     <path d="M 334.779375 302.584 
L 407.72 302.584 
Q 409.72 302.584 409.72 300.584 
L 409.72 242.8715 
Q 409.72 240.8715 407.72 240.8715 
L 334.779375 240.8715 
Q 332.779375 240.8715 332.779375 242.8715 
L 332.779375 300.584 
Q 332.779375 302.584 334.779375 302.584 
z
" style="fill: #ffffff; opacity: 0.8; stroke: #cccccc; stroke-linejoin: miter"/>
    </g>
    <g id="line2d_31">
     <path d="M 336.779375 248.969937 
L 346.779375 248.969937 
L 356.779375 248.969937 
" style="fill: none; stroke: #0000ff; stroke-width: 1.5; stroke-linecap: square"/>
    </g>
    <g id="text_17">
     <!-- average -->
     <g transform="translate(364.779375 252.469937) scale(0.1 -0.1)">
      <use xlink:href="#DejaVuSans-61"/>
      <use xlink:href="#DejaVuSans-76" transform="translate(61.279297 0)"/>
      <use xlink:href="#DejaVuSans-65" transform="translate(120.458984 0)"/>
      <use xlink:href="#DejaVuSans-72" transform="translate(181.982422 0)"/>
      <use xlink:href="#DejaVuSans-61" transform="translate(223.095703 0)"/>
      <use xlink:href="#DejaVuSans-67" transform="translate(284.375 0)"/>
      <use xlink:href="#DejaVuSans-65" transform="translate(347.851562 0)"/>
     </g>
    </g>
    <g id="line2d_32">
     <path d="M 336.779375 263.648062 
L 346.779375 263.648062 
L 356.779375 263.648062 
" style="fill: none; stroke-dasharray: 9.6,2.4,1.5,2.4; stroke-dashoffset: 0; stroke: #008000; stroke-width: 1.5"/>
    </g>
    <g id="text_18">
     <!-- -1 sd -->
     <g transform="translate(364.779375 267.148062) scale(0.1 -0.1)">
      <defs>
       <path id="DejaVuSans-2d" d="M 313 2009 
L 1997 2009 
L 1997 1497 
L 313 1497 
L 313 2009 
z
" transform="scale(0.015625)"/>
      </defs>
      <use xlink:href="#DejaVuSans-2d"/>
      <use xlink:href="#DejaVuSans-31" transform="translate(36.083984 0)"/>
      <use xlink:href="#DejaVuSans-20" transform="translate(99.707031 0)"/>
      <use xlink:href="#DejaVuSans-73" transform="translate(131.494141 0)"/>
      <use xlink:href="#DejaVuSans-64" transform="translate(183.59375 0)"/>
     </g>
    </g>
    <g id="line2d_33">
     <path d="M 336.779375 278.326187 
L 346.779375 278.326187 
L 356.779375 278.326187 
" style="fill: none; stroke-dasharray: 9.6,2.4,1.5,2.4; stroke-dashoffset: 0; stroke: #008000; stroke-width: 1.5"/>
    </g>
    <g id="text_19">
     <!-- +1 sd -->
     <g transform="translate(364.779375 281.826187) scale(0.1 -0.1)">
      <defs>
       <path id="DejaVuSans-2b" d="M 2944 4013 
L 2944 2272 
L 4684 2272 
L 4684 1741 
L 2944 1741 
L 2944 0 
L 2419 0 
L 2419 1741 
L 678 1741 
L 678 2272 
L 2419 2272 
L 2419 4013 
L 2944 4013 
z
" transform="scale(0.015625)"/>
      </defs>
      <use xlink:href="#DejaVuSans-2b"/>
      <use xlink:href="#DejaVuSans-31" transform="translate(83.789062 0)"/>
      <use xlink:href="#DejaVuSans-20" transform="translate(147.412109 0)"/>
      <use xlink:href="#DejaVuSans-73" transform="translate(179.199219 0)"/>
      <use xlink:href="#DejaVuSans-64" transform="translate(231.298828 0)"/>
     </g>
    </g>
    <g id="line2d_34">
     <path d="M 336.779375 293.004312 
L 346.779375 293.004312 
L 356.779375 293.004312 
" style="fill: none; stroke: #ff0000; stroke-width: 1.5; stroke-linecap: square"/>
    </g>
    <g id="text_20">
     <!-- best -->
     <g transform="translate(364.779375 296.504312) scale(0.1 -0.1)">
      <use xlink:href="#DejaVuSans-62"/>
      <use xlink:href="#DejaVuSans-65" transform="translate(63.476562 0)"/>
      <use xlink:href="#DejaVuSans-73" transform="translate(125 0)"/>
      <use xlink:href="#DejaVuSans-74" transform="translate(177.099609 0)"/>
     </g>
    </g>
   </g>
  </g>
 </g>
 <defs>
  <clipPath id="pf2e37242b5">
   <rect x="57.6" y="41.472" width="357.12" height="266.112"/>
  </clipPath>
 </defs>
</svg>
